<?xml version="1.0" encoding="utf-8"?>
<!-- Generator: Adobe Illustrator 26.0.3, SVG Export Plug-In . SVG Version: 6.00 Build 0)  -->
<svg version="1.1" id="Layer_1" xmlns="http://www.w3.org/2000/svg" xmlns:xlink="http://www.w3.org/1999/xlink" x="0px" y="0px"
	 viewBox="0 0 372 88" style="enable-background:new 0 0 372 88;" xml:space="preserve">
<style type="text/css">
	.st0{fill:#DCF10D;}
</style>
<path class="st0" d="M0,85.9V24.4h14.1v10.3h0.6c1.1-3.6,3.1-6.3,5.8-8.2c2.8-2,5.9-2.9,9.4-2.9c0.8,0,1.7,0,2.7,0.1
	c1,0,1.9,0.1,2.5,0.3v13.4c-0.6-0.2-1.6-0.4-2.9-0.6c-1.3-0.2-2.6-0.3-3.8-0.3c-2.6,0-5,0.6-7.1,1.7c-2.1,1.1-3.7,2.7-4.9,4.7
	s-1.8,4.3-1.8,6.9v36.2L0,85.9L0,85.9z"/>
<path class="st0" d="M92.5,54.7c0-5.4-0.8-10-2.2-14c-1.5-3.9-3.6-7.2-6.2-9.7c-2.6-2.5-5.6-4.4-9-5.6c-3.4-1.2-6.9-1.9-10.7-1.9
	c-5.9,0-11,1.4-15.4,4c-4.4,2.7-7.8,6.4-10.2,11.2c-2.4,4.8-3.6,10.3-3.6,16.7c0,6.4,1.2,12,3.6,16.8c2.4,4.7,5.8,8.4,10.3,11
	c4.5,2.6,9.8,3.9,16,3.9c4.8,0,9-0.7,12.8-2.2c3.7-1.5,6.8-3.5,9.1-6.2c2.4-2.7,4-5.8,4.9-9.4l-13.6-1.5c-0.6,1.7-1.6,3.2-2.8,4.4
	c-1.2,1.2-2.7,2.1-4.5,2.7c-1.7,0.6-3.6,0.9-5.7,0.9c-3.2,0-5.9-0.7-8.3-2c-2.3-1.4-4.2-3.3-5.5-5.8c-1.3-2.5-1.9-5.4-2-8.9h42.9
	V54.7z M49.6,49.3c0.1-2.4,0.8-4.6,1.8-6.7c1.3-2.3,3-4.2,5.2-5.6c2.2-1.4,4.8-2.2,7.8-2.2c2.8,0,5.2,0.6,7.3,1.9
	c2.1,1.3,3.8,3,4.9,5.2c1.2,2.2,1.8,4.6,1.8,7.4H49.6z"/>
<path class="st0" d="M117.4,19.5v4.9h12.8v11.2h-12.8v50.3h-14.6V35.6h-9.1V24.4h9.1v-5.8c0-4.1,0.9-7.6,2.6-10.3
	c1.7-2.8,4.1-4.8,7-6.2c2.9-1.4,6.2-2,9.7-2c2.5,0,4.8,0.2,6.7,0.6c1.9,0.4,3.4,0.8,4.3,1.1l-2.9,11.2c-0.6-0.2-1.4-0.4-2.3-0.6
	c-0.9-0.2-2-0.3-3.1-0.3c-2.7,0-4.6,0.7-5.7,2C117.9,15.3,117.4,17.1,117.4,19.5z"/>
<path class="st0" d="M226.8,87.2c-6.2,0-11.4-1.3-15.8-4.1c-4.4-2.7-7.8-6.4-10.1-11.2c-2.4-4.8-3.5-10.3-3.5-16.5
	c0-6.2,1.2-11.8,3.6-16.6c2.4-4.8,5.8-8.5,10.2-11.2c4.4-2.7,9.6-4,15.6-4c5,0,9.4,0.9,13.3,2.8c3.9,1.8,7,4.4,9.3,7.7
	c2.3,3.3,3.6,7.2,3.9,11.6h-13.9c-0.6-3-1.9-5.4-4-7.4c-2.1-2-4.9-3-8.4-3c-3,0-5.6,0.8-7.8,2.4c-2.2,1.6-4,3.9-5.2,6.8
	c-1.2,3-1.8,6.5-1.8,10.7c0,4.2,0.6,7.8,1.8,10.8c1.2,3,2.9,5.3,5.2,6.9c2.2,1.6,4.9,2.4,7.9,2.4c2.1,0,4.1-0.4,5.7-1.2
	c1.7-0.8,3.1-2,4.3-3.6c1.1-1.6,1.9-3.4,2.4-5.7h13.9c-0.4,4.4-1.6,8.2-3.9,11.6c-2.2,3.3-5.2,6-9.1,7.9
	C236.5,86.2,232,87.2,226.8,87.2z"/>
<path class="st0" d="M298,60V24.4h14.5v61.6h-14.1V75h-0.6c-1.4,3.4-3.7,6.3-6.9,8.5c-3.1,2.2-7,3.3-11.7,3.3c-4,0-7.6-0.9-10.7-2.7
	c-3.1-1.8-5.5-4.4-7.2-7.9c-1.7-3.5-2.6-7.7-2.6-12.6V24.4h14.5v37c0,3.9,1.1,7,3.2,9.3c2.1,2.3,4.9,3.5,8.4,3.5
	c2.1,0,4.2-0.5,6.2-1.6c2-1,3.6-2.6,4.9-4.6C297.3,65.8,298,63.2,298,60z"/>
<path class="st0" d="M369.7,40.6l-13.2,1.4c-0.4-1.3-1-2.6-2-3.8c-0.9-1.2-2.1-2.1-3.7-2.9c-1.6-0.7-3.5-1.1-5.7-1.1
	c-3,0-5.6,0.7-7.6,2c-2,1.3-3,3-3,5.1c0,1.8,0.6,3.2,2,4.4c1.4,1.1,3.6,2,6.7,2.8l10.5,2.2c5.8,1.3,10.1,3.2,13,6
	c2.9,2.7,4.3,6.3,4.3,10.7c0,3.9-1.2,7.3-3.4,10.3c-2.2,2.9-5.3,5.2-9.3,6.9c-3.9,1.7-8.5,2.5-13.6,2.5c-7.5,0-13.6-1.6-18.2-4.7
	c-4.6-3.2-7.3-7.6-8.2-13.3l14.1-1.4c0.6,2.8,2,4.9,4.1,6.3c2.1,1.4,4.8,2.1,8.1,2.1c3.4,0,6.2-0.7,8.3-2.1c2.1-1.4,3.2-3.2,3.2-5.2
	c0-1.8-0.7-3.2-2-4.4c-1.3-1.2-3.4-2-6.2-2.7l-10.5-2.2c-5.9-1.2-10.3-3.3-13.1-6.2c-2.8-2.9-4.2-6.7-4.2-11.1c0-3.8,1-7.1,3.1-9.9
	c2.1-2.8,5-5,8.8-6.5c3.8-1.6,8.1-2.3,13-2.3c7.2,0,12.9,1.5,17,4.6C366.1,31.3,368.7,35.4,369.7,40.6z"/>
<path class="st0" d="M194.1,55.3c-17.6,0-31.8-14.2-31.8-31.8C179.9,23.5,194.1,37.7,194.1,55.3z"/>
<path class="st0" d="M162.3,87.1c0-17.6,14.2-31.8,31.8-31.8C194.1,72.9,179.9,87.1,162.3,87.1z"/>
<path class="st0" d="M162.3,23.5c0,17.6-14.2,31.8-31.8,31.8C130.5,37.7,144.8,23.5,162.3,23.5z"/>
<path class="st0" d="M130.5,55.3c17.6,0,31.8,14.2,31.8,31.8C144.8,87.1,130.5,72.9,130.5,55.3z"/>
</svg>
